# xmcd
#
# Track frame offsets: 
#        150
#        17474
#        43054
#        59715
#        76711
#        99442
#        120022
#        142189
#        161013
#        180629
#        200833
#        214558
#        226114
#        246043
#        267142
#        287275
#        294856
#        310792
#        331246
#
# Disc length: 4635 seconds
#
# Revision: 0
# Processed by: cddbd v1.4PL0 Copyright (c) Steve Scherf et al.
# Submitted via: ExactAudioCopy v0.95a3
#
DISCID=fb121913
DTITLE=Mike Francis - Mike Francis - Greatest Hits
DYEAR=1900
DGENRE=Crossover
TTITLE0=Harvest for the World
TTITLE1=Friends feat Amil Stewart
TTITLE2=Living it Up
TTITLE3=Features of Love
TTITLE4=Let Me In
TTITLE5=Together
TTITLE6=Fall in Love
TTITLE7=Lovely Day
TTITLE8=Survivor
TTITLE9=You Can Get out of my Heart
TTITLE10=On and On
TTITLE11=Don't Let me be Lonely Tonight
TTITLE12=Suddenly Back To Me
TTITLE13=I'm Not In Love
TTITLE14=Dusty Road
TTITLE15=Noi
TTITLE16=On Your Side
TTITLE17=Dream of a Lifetime
TTITLE18=Wake up Everybody
EXTD=
EXTT0=
EXTT1=
EXTT2=
EXTT3=
EXTT4=
EXTT5=
EXTT6=
EXTT7=
EXTT8=
EXTT9=
EXTT10=
EXTT11=
EXTT12=
EXTT13=
EXTT14=
EXTT15=
EXTT16=
EXTT17=
EXTT18=
PLAYORDER=
